# xmcd
#
# Track frame offsets:
#	150
#	12453
#	30243
#	48295
#	66645
#	80915
#	94513
#	109736
#	122585
#	132312
#
# Disc length: 2008 seconds
# Revision: 0
# Processed by: cddbd v1.5.2PL0 Copyright (c) Steve Scherf et al.
# Submitted via: dBpowerAMP V12.0
#
DISCID=8207d60a
DTITLE=Bearfoot - American Story
DYEAR=2011
DGENRE=Country
TTITLE0=Tell Me a Story
TTITLE1=Feel Free
TTITLE2=Midnight In Montana
TTITLE3=The Dust
TTITLE4=Come Get Your Lonesome
TTITLE5=When You're Away
TTITLE6=Eyes Cast Down
TTITLE7=Kill the Rooster
TTITLE8=Billy
TTITLE9=Mr. Moonshine
EXTD=
EXTT0=
EXTT1=
EXTT2=
EXTT3=
EXTT4=
EXTT5=
EXTT6=
EXTT7=
EXTT8=
EXTT9=
PLAYORDER=
